<mxfile host="app.diagrams.net" modified="2021-06-07T11:34:30.322Z" agent="5.0 (Windows NT 10.0; Win64; x64) AppleWebKit/537.36 (KHTML, like Gecko) Chrome/91.0.4472.77 Safari/537.36" etag="brRGSrYCJmckMdT3oeOO" version="14.7.6" type="github">
  <diagram id="4WeLWoLbl9c9doZnRNi1" name="Page-1">
    <mxGraphModel dx="1422" dy="762" grid="1" gridSize="10" guides="1" tooltips="1" connect="1" arrows="1" fold="1" page="1" pageScale="1" pageWidth="1100" pageHeight="850" math="0" shadow="0">
      <root>
        <mxCell id="0" />
        <mxCell id="1" parent="0" />
        <mxCell id="g26gJI3OPP5dfYRT891p-5" value="" style="shape=umlLifeline;participant=umlEntity;perimeter=lifelinePerimeter;whiteSpace=wrap;html=1;container=1;collapsible=0;recursiveResize=0;verticalAlign=top;spacingTop=36;outlineConnect=0;" parent="1" vertex="1">
          <mxGeometry x="380" y="20" width="40" height="40" as="geometry" />
        </mxCell>
        <mxCell id="g26gJI3OPP5dfYRT891p-6" value="定向serving" style="shape=umlLifeline;perimeter=lifelinePerimeter;whiteSpace=wrap;html=1;container=1;collapsible=0;recursiveResize=0;outlineConnect=0;" parent="1" vertex="1">
          <mxGeometry x="350" y="60" width="100" height="650" as="geometry" />
        </mxCell>
        <mxCell id="g26gJI3OPP5dfYRT891p-7" value="" style="html=1;points=[];perimeter=orthogonalPerimeter;" parent="g26gJI3OPP5dfYRT891p-6" vertex="1">
          <mxGeometry x="45" y="50" width="10" height="230" as="geometry" />
        </mxCell>
        <mxCell id="g26gJI3OPP5dfYRT891p-35" value="根据定向包&lt;br&gt;过滤激活类型-非品牌" style="edgeStyle=orthogonalEdgeStyle;rounded=0;orthogonalLoop=1;jettySize=auto;html=1;" parent="g26gJI3OPP5dfYRT891p-6" source="g26gJI3OPP5dfYRT891p-7" target="g26gJI3OPP5dfYRT891p-6" edge="1">
          <mxGeometry relative="1" as="geometry">
            <mxPoint x="210" y="270" as="targetPoint" />
            <Array as="points">
              <mxPoint x="133" y="80" />
              <mxPoint x="133" y="130" />
            </Array>
          </mxGeometry>
        </mxCell>
        <mxCell id="HXINRgHEy04y-cdiXWr6-2" value="获取品牌场景的&lt;br&gt;定向维度元数据" style="edgeStyle=orthogonalEdgeStyle;rounded=0;orthogonalLoop=1;jettySize=auto;html=1;" edge="1" parent="g26gJI3OPP5dfYRT891p-6" source="g26gJI3OPP5dfYRT891p-7" target="g26gJI3OPP5dfYRT891p-6">
          <mxGeometry relative="1" as="geometry">
            <mxPoint x="310" y="230" as="targetPoint" />
            <Array as="points">
              <mxPoint x="130" y="165" />
              <mxPoint x="130" y="210" />
            </Array>
          </mxGeometry>
        </mxCell>
        <mxCell id="g26gJI3OPP5dfYRT891p-8" value="" style="shape=umlLifeline;participant=umlEntity;perimeter=lifelinePerimeter;whiteSpace=wrap;html=1;container=1;collapsible=0;recursiveResize=0;verticalAlign=top;spacingTop=36;outlineConnect=0;" parent="1" vertex="1">
          <mxGeometry x="80" y="20" width="40" height="40" as="geometry" />
        </mxCell>
        <mxCell id="g26gJI3OPP5dfYRT891p-9" value="投放端" style="shape=umlLifeline;perimeter=lifelinePerimeter;whiteSpace=wrap;html=1;container=1;collapsible=0;recursiveResize=0;outlineConnect=0;" parent="1" vertex="1">
          <mxGeometry x="50" y="60" width="100" height="650" as="geometry" />
        </mxCell>
        <mxCell id="g26gJI3OPP5dfYRT891p-10" value="" style="html=1;points=[];perimeter=orthogonalPerimeter;" parent="g26gJI3OPP5dfYRT891p-9" vertex="1">
          <mxGeometry x="45" y="50" width="10" height="220" as="geometry" />
        </mxCell>
        <mxCell id="g26gJI3OPP5dfYRT891p-11" style="edgeStyle=orthogonalEdgeStyle;rounded=0;orthogonalLoop=1;jettySize=auto;html=1;entryX=0.1;entryY=0.05;entryDx=0;entryDy=0;entryPerimeter=0;" parent="1" edge="1">
          <mxGeometry relative="1" as="geometry">
            <Array as="points">
              <mxPoint x="104" y="125" />
              <mxPoint x="269" y="125" />
            </Array>
            <mxPoint x="104" y="130" as="sourcePoint" />
            <mxPoint x="395" y="124.5" as="targetPoint" />
          </mxGeometry>
        </mxCell>
        <mxCell id="g26gJI3OPP5dfYRT891p-12" value="查询定向列表" style="edgeLabel;html=1;align=center;verticalAlign=middle;resizable=0;points=[];" parent="g26gJI3OPP5dfYRT891p-11" vertex="1" connectable="0">
          <mxGeometry x="-0.422" y="-1" relative="1" as="geometry">
            <mxPoint x="55" y="-6" as="offset" />
          </mxGeometry>
        </mxCell>
        <mxCell id="HXINRgHEy04y-cdiXWr6-4" value="保存定向包" style="edgeStyle=orthogonalEdgeStyle;rounded=0;orthogonalLoop=1;jettySize=auto;html=1;dashed=1;" edge="1" parent="1" source="g26gJI3OPP5dfYRT891p-40" target="g26gJI3OPP5dfYRT891p-9">
          <mxGeometry relative="1" as="geometry">
            <Array as="points">
              <mxPoint x="330" y="660" />
              <mxPoint x="330" y="660" />
            </Array>
          </mxGeometry>
        </mxCell>
        <mxCell id="g26gJI3OPP5dfYRT891p-40" value="" style="html=1;points=[];perimeter=orthogonalPerimeter;" parent="1" vertex="1">
          <mxGeometry x="395" y="364.5" width="10" height="315.5" as="geometry" />
        </mxCell>
        <mxCell id="g26gJI3OPP5dfYRT891p-43" value="设置定向包激活类型-品牌" style="edgeStyle=orthogonalEdgeStyle;rounded=0;orthogonalLoop=1;jettySize=auto;html=1;" parent="1" edge="1">
          <mxGeometry relative="1" as="geometry">
            <mxPoint x="405" y="424.5" as="targetPoint" />
            <mxPoint x="410.5" y="394.5" as="sourcePoint" />
            <Array as="points">
              <mxPoint x="488.5" y="394.5" />
              <mxPoint x="488.5" y="424.5" />
            </Array>
          </mxGeometry>
        </mxCell>
        <mxCell id="g26gJI3OPP5dfYRT891p-45" value="过滤品牌场景&lt;br&gt;不支持的定向纬度值" style="edgeStyle=orthogonalEdgeStyle;rounded=0;orthogonalLoop=1;jettySize=auto;html=1;entryX=1;entryY=0.455;entryDx=0;entryDy=0;entryPerimeter=0;" parent="1" edge="1" target="g26gJI3OPP5dfYRT891p-40">
          <mxGeometry relative="1" as="geometry">
            <mxPoint x="405.5" y="484.5" as="targetPoint" />
            <mxPoint x="406" y="450" as="sourcePoint" />
            <Array as="points">
              <mxPoint x="489" y="450" />
              <mxPoint x="489" y="508" />
            </Array>
          </mxGeometry>
        </mxCell>
        <mxCell id="g26gJI3OPP5dfYRT891p-46" value="" style="html=1;points=[];perimeter=orthogonalPerimeter;" parent="1" vertex="1">
          <mxGeometry x="95" y="364.5" width="10" height="315.5" as="geometry" />
        </mxCell>
        <mxCell id="g26gJI3OPP5dfYRT891p-47" style="edgeStyle=orthogonalEdgeStyle;rounded=0;orthogonalLoop=1;jettySize=auto;html=1;entryX=0.1;entryY=0.05;entryDx=0;entryDy=0;entryPerimeter=0;" parent="1" edge="1">
          <mxGeometry relative="1" as="geometry">
            <Array as="points">
              <mxPoint x="105" y="365" />
              <mxPoint x="270" y="365" />
            </Array>
            <mxPoint x="105" y="370" as="sourcePoint" />
            <mxPoint x="396" y="364.5" as="targetPoint" />
          </mxGeometry>
        </mxCell>
        <mxCell id="g26gJI3OPP5dfYRT891p-48" value="定向包保存" style="edgeLabel;html=1;align=center;verticalAlign=middle;resizable=0;points=[];" parent="g26gJI3OPP5dfYRT891p-47" vertex="1" connectable="0">
          <mxGeometry x="-0.422" y="-1" relative="1" as="geometry">
            <mxPoint x="55" y="-6" as="offset" />
          </mxGeometry>
        </mxCell>
        <mxCell id="HXINRgHEy04y-cdiXWr6-3" value="返回品牌支持定向列表+定向维度元数据" style="edgeStyle=orthogonalEdgeStyle;rounded=0;orthogonalLoop=1;jettySize=auto;html=1;dashed=1;" edge="1" parent="1" source="g26gJI3OPP5dfYRT891p-7" target="g26gJI3OPP5dfYRT891p-9">
          <mxGeometry relative="1" as="geometry">
            <Array as="points">
              <mxPoint x="340" y="320" />
              <mxPoint x="340" y="320" />
            </Array>
          </mxGeometry>
        </mxCell>
      </root>
    </mxGraphModel>
  </diagram>
</mxfile>
